<?xml version="1.0" encoding="UTF-8"?>
<!DOCTYPE svg PUBLIC "-//W3C//DTD SVG 1.1//EN" "http://www.w3.org/Graphics/SVG/1.1/DTD/svg11.dtd">
<svg xmlns="http://www.w3.org/2000/svg" version="1.1" width="331px" height="152px" style="shape-rendering:geometricPrecision; text-rendering:geometricPrecision; image-rendering:optimizeQuality; fill-rule:evenodd; clip-rule:evenodd" xmlns:xlink="http://www.w3.org/1999/xlink">
<g><path style="opacity:1" fill="#fefdfc" d="M -0.5,-0.5 C 109.833,-0.5 220.167,-0.5 330.5,-0.5C 330.5,50.1667 330.5,100.833 330.5,151.5C 220.167,151.5 109.833,151.5 -0.5,151.5C -0.5,100.833 -0.5,50.1667 -0.5,-0.5 Z"/></g>
<g><path style="opacity:1" fill="#963c10" d="M 289.5,6.5 C 283.69,5.51045 277.69,5.17711 271.5,5.5C 271.469,10.6249 270.636,15.6249 269,20.5C 267.014,25.4438 265.181,30.4438 263.5,35.5C 262.833,35.8333 262.167,36.1667 261.5,36.5C 258.529,35.5652 255.529,34.7319 252.5,34C 245.048,33.6644 237.714,33.4977 230.5,33.5C 234.574,32.0456 238.907,31.3789 243.5,31.5C 249.961,31.8732 256.295,32.7065 262.5,34C 265.708,24.0032 268.375,13.8365 270.5,3.5C 277.167,3.5 283.833,3.5 290.5,3.5C 290.737,4.79105 290.404,5.79105 289.5,6.5 Z"/></g>
<g><path style="opacity:1" fill="#fa661a" d="M 289.5,7.5 C 284.16,27.8587 278.66,48.192 273,68.5C 267.474,52.6464 256.308,45.813 239.5,48C 223.268,54.6302 217.268,66.4635 221.5,83.5C 220.957,83.56 220.624,83.8933 220.5,84.5C 222.602,87.7046 224.435,91.0379 226,94.5C 236.223,105.131 248.223,107.465 262,101.5C 262.464,102.094 262.631,102.761 262.5,103.5C 262.585,106.747 261.585,109.581 259.5,112C 240.378,117.837 223.545,114.003 209,100.5C 207.362,104.722 206.195,109.055 205.5,113.5C 199.167,113.5 192.833,113.5 186.5,113.5C 189.317,105.679 191.65,97.6795 193.5,89.5C 198.012,79.8467 201.345,69.6801 203.5,59C 202.944,57.9889 202.278,57.1556 201.5,56.5C 201.719,55.325 201.386,54.325 200.5,53.5C 187.167,73.1667 173.833,92.8333 160.5,112.5C 154.537,113.496 148.537,113.829 142.5,113.5C 142.5,111.5 142.5,109.5 142.5,107.5C 142.072,94.1461 141.239,80.8128 140,67.5C 139.796,64.2026 138.963,61.2026 137.5,58.5C 137.229,56.6883 136.562,55.0217 135.5,53.5C 134.808,54.0253 134.308,54.6919 134,55.5C 128.599,74.5348 123.099,93.5348 117.5,112.5C 111.537,113.496 105.537,113.829 99.5,113.5C 102.975,103.918 105.975,94.2512 108.5,84.5C 115.828,66.8171 121.161,48.4838 124.5,29.5C 125.219,27.9087 126.219,26.4087 127.5,25C 136.494,24.5002 145.494,24.3336 154.5,24.5C 155.902,38.4526 157.068,52.4526 158,66.5C 158.382,72.5986 159.549,78.2653 161.5,83.5C 162.386,84.7759 163.386,84.7759 164.5,83.5C 168.501,78.1683 172.001,72.5016 175,66.5C 176.154,65.2567 177.488,64.2567 179,63.5C 183.22,55.6814 187.72,48.0147 192.5,40.5C 197.164,36.9908 199.997,32.3241 201,26.5C 201.833,25.6667 202.667,24.8333 203.5,24C 212.494,23.5002 221.494,23.3336 230.5,23.5C 230.127,26.5739 229.461,29.5739 228.5,32.5C 227.535,33.7211 227.702,35.0544 229,36.5C 229.893,37.0814 230.893,37.4148 232,37.5C 235.141,36.9541 238.308,36.6208 241.5,36.5C 249.514,37.2749 257.514,37.7749 265.5,38C 268.857,28.4226 271.524,18.5893 273.5,8.5C 278.927,8.78246 284.26,8.44913 289.5,7.5 Z"/></g>
<g><path style="opacity:1" fill="#993e11" d="M 317.5,10.5 C 310.126,6.11029 303.292,6.77695 297,12.5C 296.503,14.8098 296.337,17.1432 296.5,19.5C 293.418,13.2467 295.085,8.41336 301.5,5C 305.594,4.23266 309.594,4.566 313.5,6C 315.751,6.74753 317.084,8.24753 317.5,10.5 Z"/></g>
<g><path style="opacity:1" fill="#f6651a" d="M 317.5,10.5 C 318.634,12.9664 318.801,15.633 318,18.5C 317.167,20.6667 315.667,22.1667 313.5,23C 309.594,24.434 305.594,24.7673 301.5,24C 299.34,23.0041 297.673,21.5041 296.5,19.5C 296.337,17.1432 296.503,14.8098 297,12.5C 303.292,6.77695 310.126,6.11029 317.5,10.5 Z"/></g>
<g><path style="opacity:1" fill="#bd4d13" d="M 230.5,23.5 C 221.494,23.3336 212.494,23.5002 203.5,24C 202.667,24.8333 201.833,25.6667 201,26.5C 199.997,32.3241 197.164,36.9908 192.5,40.5C 192.892,38.8211 193.392,37.1545 194,35.5C 196.288,30.98 199.122,26.8134 202.5,23C 212.009,22.1757 221.343,22.3424 230.5,23.5 Z"/></g>
<g><path style="opacity:1" fill="#ca5214" d="M 154.5,22.5 C 154.5,23.1667 154.5,23.8333 154.5,24.5C 145.494,24.3336 136.494,24.5002 127.5,25C 126.219,26.4087 125.219,27.9087 124.5,29.5C 124.244,27.2075 124.577,25.0408 125.5,23C 135.161,22.5002 144.828,22.3335 154.5,22.5 Z"/></g>
<g><path style="opacity:1" fill="#978c84" d="M 81.5,18.5 C 101.272,20.6679 109.439,31.6679 106,51.5C 102,64.1667 98,76.8333 94,89.5C 83.7598,107.537 68.2598,115.371 47.5,113C 33.1129,107.924 26.9462,97.7571 29,82.5C 32.3746,70.6627 36.2079,58.996 40.5,47.5C 40.4978,53.044 40.6645,58.7106 41,64.5C 41.4728,66.779 42.4728,68.779 44,70.5C 46.6645,61.8447 49.3311,53.178 52,44.5C 57.597,33.0733 66.7637,27.0733 79.5,26.5C 79.9628,23.779 80.6295,21.1123 81.5,18.5 Z"/></g>
<g><path style="opacity:1" fill="#963c10" d="M 230.5,23.5 C 221.343,22.3424 212.009,22.1757 202.5,23C 199.122,26.8134 196.288,30.98 194,35.5C 193.392,37.1545 192.892,38.8211 192.5,40.5C 187.72,48.0147 183.22,55.6814 179,63.5C 177.488,64.2567 176.154,65.2567 175,66.5C 172.001,72.5016 168.501,78.1683 164.5,83.5C 163.386,84.7759 162.386,84.7759 161.5,83.5C 174.61,62.5502 187.943,41.7168 201.5,21C 211.494,20.5002 221.494,20.3335 231.5,20.5C 231.737,21.791 231.404,22.791 230.5,23.5 Z"/></g>
<g><path style="opacity:1" fill="#d95916" d="M 289.5,6.5 C 289.5,6.83333 289.5,7.16667 289.5,7.5C 284.26,8.44913 278.927,8.78246 273.5,8.5C 271.524,18.5893 268.857,28.4226 265.5,38C 257.514,37.7749 249.514,37.2749 241.5,36.5C 238.308,36.6208 235.141,36.9541 232,37.5C 230.893,37.4148 229.893,37.0814 229,36.5C 227.702,35.0544 227.535,33.7211 228.5,32.5C 228.842,33.3382 229.508,33.6716 230.5,33.5C 237.714,33.4977 245.048,33.6644 252.5,34C 255.529,34.7319 258.529,35.5652 261.5,36.5C 262.167,36.1667 262.833,35.8333 263.5,35.5C 265.181,30.4438 267.014,25.4438 269,20.5C 270.636,15.6249 271.469,10.6249 271.5,5.5C 277.69,5.17711 283.69,5.51045 289.5,6.5 Z"/></g>
<g><path style="opacity:1" fill="#f86519" d="M 312.5,35.5 C 304.977,61.4084 297.643,87.4084 290.5,113.5C 284.833,113.5 279.167,113.5 273.5,113.5C 274.855,105.078 276.688,96.7451 279,88.5C 281.665,81.2026 284.331,73.8692 287,66.5C 289.074,57.4718 291.408,48.4718 294,39.5C 294.465,38.0692 295.299,36.9025 296.5,36C 301.823,35.5006 307.156,35.334 312.5,35.5 Z"/></g>
<g><path style="opacity:1" fill="#f6f6f5" d="M 82.5,20.5 C 96.6865,21.8539 104.353,29.6872 105.5,44C 104.206,48.0488 103.373,52.2155 103,56.5C 102.667,56.8333 102.333,57.1667 102,57.5C 101.794,54.3771 101.127,51.3771 100,48.5C 100.438,53.797 100.438,59.1303 100,64.5C 99.6047,60.9811 98.6047,57.6478 97,54.5C 98.2891,60.0384 98.6225,65.7051 98,71.5C 95.7434,58.743 88.2434,51.0763 75.5,48.5C 74.7691,46.5988 74.7691,44.5988 75.5,42.5C 79.804,42.2677 83.804,43.2677 87.5,45.5C 87.8333,45.3333 88.1667,45.1667 88.5,45C 85.2657,42.5333 81.5991,41.3666 77.5,41.5C 76.5764,37.1635 78.2431,34.6635 82.5,34C 81.552,33.5172 80.552,33.3505 79.5,33.5C 80.3436,29.1259 81.3436,24.7925 82.5,20.5 Z"/></g>
<g><path style="opacity:1" fill="#9a3e13" d="M 154.5,22.5 C 144.828,22.3335 135.161,22.5002 125.5,23C 124.577,25.0408 124.244,27.2075 124.5,29.5C 120.029,39.2847 116.862,49.6181 115,60.5C 112.875,64.6721 111.209,69.0054 110,73.5C 109.281,77.1454 108.781,80.8121 108.5,84.5C 105.975,94.2512 102.975,103.918 99.5,113.5C 98.3775,111.712 98.2109,109.712 99,107.5C 107.332,78.8397 115.665,50.1731 124,21.5C 129.087,20.8453 134.254,20.5119 139.5,20.5C 144.881,20.5058 149.881,21.1725 154.5,22.5 Z"/></g>
<g><path style="opacity:1" fill="#da5916" d="M 124.5,29.5 C 121.161,48.4838 115.828,66.8171 108.5,84.5C 108.781,80.8121 109.281,77.1454 110,73.5C 111.209,69.0054 112.875,64.6721 115,60.5C 116.862,49.6181 120.029,39.2847 124.5,29.5 Z"/></g>
<g><path style="opacity:1" fill="#a94618" d="M 312.5,35.5 C 307.156,35.334 301.823,35.5006 296.5,36C 295.299,36.9025 294.465,38.0692 294,39.5C 291.408,48.4718 289.074,57.4718 287,66.5C 284.331,73.8692 281.665,81.2026 279,88.5C 276.688,96.7451 274.855,105.078 273.5,113.5C 279.167,113.5 284.833,113.5 290.5,113.5C 284.355,114.49 278.022,114.823 271.5,114.5C 271.338,112.473 271.505,110.473 272,108.5C 279.299,83.5735 286.299,58.5735 293,33.5C 299.41,32.5223 305.91,32.189 312.5,32.5C 312.5,33.5 312.5,34.5 312.5,35.5 Z"/></g>
<g><path style="opacity:1" fill="#fbfbfa" d="M 37.5,60.5 C 39.0397,64.9423 40.7064,69.4423 42.5,74C 38.6195,81.9949 38.7862,89.8283 43,97.5C 52.0146,105.95 61.8479,106.783 72.5,100C 80.7438,94.3596 85.5771,86.5263 87,76.5C 89.6667,74.5 92.3333,72.5 95,70.5C 94.9772,90.8923 85.1439,104.392 65.5,111C 45.5506,115.544 33.8839,107.877 30.5,88C 31.9718,78.6127 34.3051,69.4461 37.5,60.5 Z"/></g>
<g><path style="opacity:1" fill="#f6f5f4" d="M 91.5,61.5 C 92.8598,63.0463 93.8598,64.8796 94.5,67C 93.0557,69.4485 91.2224,71.6152 89,73.5C 89.1857,69.4156 90.0191,65.4156 91.5,61.5 Z"/></g>
<g><path style="opacity:1" fill="#fcfcfc" d="M 62.5,67.5 C 77.3207,68.1546 81.4874,75.1546 75,88.5C 67.9261,96.9537 59.5928,98.6203 50,93.5C 45.6361,85.1122 47.1361,77.9455 54.5,72C 57.0993,70.205 59.7659,68.705 62.5,67.5 Z"/></g>
<g><path style="opacity:1" fill="#9d4014" d="M 197.5,70.5 C 197.664,73.1873 197.497,75.854 197,78.5C 194.936,81.8598 193.769,85.5265 193.5,89.5C 191.65,97.6795 189.317,105.679 186.5,113.5C 185.711,113.217 185.044,112.717 184.5,112C 188.62,97.9951 192.954,84.1618 197.5,70.5 Z"/></g>
<g><path style="opacity:1" fill="#ba501f" d="M 137.5,58.5 C 138.963,61.2026 139.796,64.2026 140,67.5C 141.239,80.8128 142.072,94.1461 142.5,107.5C 140.424,91.3521 138.758,75.0187 137.5,58.5 Z"/></g>
<g><path style="opacity:1" fill="#bd4e16" d="M 201.5,56.5 C 202.278,57.1556 202.944,57.9889 203.5,59C 201.345,69.6801 198.012,79.8467 193.5,89.5C 193.769,85.5265 194.936,81.8598 197,78.5C 197.497,75.854 197.664,73.1873 197.5,70.5C 198.319,65.573 199.652,60.9063 201.5,56.5 Z"/></g>
<g><path style="opacity:1" fill="#993d0f" d="M 264.5,97.5 C 258.6,100.288 252.267,101.955 245.5,102.5C 240.577,102.039 236.577,100.039 233.5,96.5C 245.436,101.781 256.269,100.114 266,91.5C 266.036,93.5722 265.536,95.5722 264.5,97.5 Z"/></g>
<g><path style="opacity:1" fill="#e15c18" d="M 221.5,83.5 C 224.084,89.0863 228.084,93.4196 233.5,96.5C 236.577,100.039 240.577,102.039 245.5,102.5C 252.267,101.955 258.6,100.288 264.5,97.5C 264.405,99.7857 263.738,101.786 262.5,103.5C 262.631,102.761 262.464,102.094 262,101.5C 248.223,107.465 236.223,105.131 226,94.5C 224.435,91.0379 222.602,87.7046 220.5,84.5C 220.624,83.8933 220.957,83.56 221.5,83.5 Z"/></g>
<g><path style="opacity:1" fill="#a0968f" d="M 14.5,145.5 C 13.791,146.404 12.791,146.737 11.5,146.5C 10.9569,146.44 10.6236,146.107 10.5,145.5C 13.3773,136.87 16.044,128.203 18.5,119.5C 37.1696,119.333 55.8363,119.5 74.5,120C 56.8239,120.167 39.1572,120.667 21.5,121.5C 18.5435,129.328 16.2101,137.328 14.5,145.5 Z"/></g>
<g><path style="opacity:1" fill="#988d85" d="M 271.5,141.5 C 188.493,142.164 105.827,141.497 23.5,139.5C 24.6369,134.095 25.9702,128.761 27.5,123.5C 110.5,123.5 193.5,123.5 276.5,123.5C 274.834,129.499 273.167,135.499 271.5,141.5 Z"/></g>
<g><path style="opacity:1" fill="#a19790" d="M 280.5,146.5 C 279.209,146.737 278.209,146.404 277.5,145.5C 280.305,137.302 282.972,128.969 285.5,120.5C 268.163,120.667 250.83,120.5 233.5,120C 251.83,119.5 270.164,119.333 288.5,119.5C 286.28,128.729 283.614,137.729 280.5,146.5 Z"/></g>
<g><path style="opacity:1" fill="#f2f1f0" d="M 124.5,129.5 C 125.873,129.343 127.207,129.51 128.5,130C 130.017,131.685 131.684,133.185 133.5,134.5C 134.357,133.264 135.023,131.931 135.5,130.5C 136.167,129.167 136.833,129.167 137.5,130.5C 137.07,133.276 135.904,135.61 134,137.5C 131.384,135.888 129.05,133.888 127,131.5C 126.457,133.631 125.624,135.631 124.5,137.5C 123.795,134.911 123.795,132.244 124.5,129.5 Z"/></g>
<g><path style="opacity:1" fill="#f5f4f4" d="M 168.5,129.5 C 169.552,129.351 170.552,129.517 171.5,130C 170.76,131.785 170.093,133.618 169.5,135.5C 171.766,136.314 174.1,136.814 176.5,137C 173.518,137.498 170.518,137.665 167.5,137.5C 168.092,134.873 168.425,132.206 168.5,129.5 Z"/></g>
<g><path style="opacity:1" fill="#f2f1f0" d="M 227.5,129.5 C 228.675,129.281 229.675,129.614 230.5,130.5C 227.313,139.745 226.313,139.412 227.5,129.5 Z"/></g>
<g><path style="opacity:1" fill="#f0efee" d="M 238.5,129.5 C 241.85,129.335 245.183,129.502 248.5,130C 245.774,130.182 243.107,130.682 240.5,131.5C 242.5,132.167 244.5,132.833 246.5,133.5C 237.234,134.972 237.234,136.138 246.5,137C 243.118,137.824 239.784,137.657 236.5,136.5C 237.325,134.199 237.992,131.865 238.5,129.5 Z"/></g>
<g><path style="opacity:1" fill="#f5f4f3" d="M 49.5,130.5 C 52.9758,129.357 56.6425,129.19 60.5,130C 56.0283,130.417 54.0283,132.917 54.5,137.5C 53.448,137.649 52.448,137.483 51.5,137C 52.2401,135.215 52.9067,133.382 53.5,131.5C 52.3112,130.571 50.9778,130.238 49.5,130.5 Z"/></g>
<g><path style="opacity:1" fill="#ebeae8" d="M 67.5,129.5 C 70.8499,129.335 74.1832,129.502 77.5,130C 74.7737,130.182 72.1071,130.682 69.5,131.5C 71.5,132.167 73.5,132.833 75.5,133.5C 66.2335,134.972 66.2335,136.138 75.5,137C 72.1832,137.498 68.8499,137.665 65.5,137.5C 65.8583,134.733 66.525,132.067 67.5,129.5 Z"/></g>
<g><path style="opacity:1" fill="#f3f2f2" d="M 208.5,129.5 C 211.898,129.18 215.232,129.513 218.5,130.5C 215.233,130.11 211.899,130.61 208.5,132C 207.167,133.333 207.167,134.667 208.5,136C 211.379,136.874 214.045,136.54 216.5,135C 215.5,134.667 214.5,134.333 213.5,134C 215.134,133.506 216.801,133.34 218.5,133.5C 218.67,134.822 218.337,135.989 217.5,137C 214.167,137.667 210.833,137.667 207.5,137C 206.422,136.326 205.755,135.326 205.5,134C 206.008,132.107 207.008,130.607 208.5,129.5 Z"/></g>
<g><path style="opacity:1" fill="#efedec" d="M 87.5,129.5 C 90.7216,129.108 93.7216,129.608 96.5,131C 93.1403,130.13 89.807,130.463 86.5,132C 85.1667,133.333 85.1667,134.667 86.5,136C 89.6669,136.252 92.6669,136.418 95.5,136.5C 91.878,137.659 88.2113,137.825 84.5,137C 82.6124,133.186 83.6124,130.686 87.5,129.5 Z"/></g>
<g><path style="opacity:1" fill="#f0eeed" d="M 148.5,129.5 C 152.584,129.043 156.417,129.71 160,131.5C 160.63,133.903 159.797,135.737 157.5,137C 153.833,137.667 150.167,137.667 146.5,137C 143.759,133.711 144.425,131.211 148.5,129.5 Z"/></g>
<g><path style="opacity:1" fill="#958981" d="M 150.5,130.5 C 153.641,129.908 155.974,130.908 157.5,133.5C 157.182,134.647 156.516,135.481 155.5,136C 153.167,136.667 150.833,136.667 148.5,136C 147.62,134.644 147.286,133.144 147.5,131.5C 148.791,131.737 149.791,131.404 150.5,130.5 Z"/></g>
<g><path style="opacity:1" fill="#e8e6e4" d="M 104.5,129.5 C 106.048,129.821 106.715,130.821 106.5,132.5C 110.073,132.959 113.073,131.959 115.5,129.5C 116.038,131.764 115.704,134.097 114.5,136.5C 114.167,136.833 113.833,137.167 113.5,137.5C 112.614,136.675 112.281,135.675 112.5,134.5C 110.167,134.5 107.833,134.5 105.5,134.5C 105.5,135.5 105.5,136.5 105.5,137.5C 104.448,137.649 103.448,137.483 102.5,137C 103.554,134.618 104.221,132.118 104.5,129.5 Z"/></g>
<g><path style="opacity:1" fill="#f3f2f1" d="M 186.5,129.5 C 190.584,129.043 194.417,129.71 198,131.5C 198.561,134.298 197.394,136.131 194.5,137C 191.167,137.667 187.833,137.667 184.5,137C 181.759,133.711 182.425,131.211 186.5,129.5 Z"/></g>
<g><path style="opacity:1" fill="#978c84" d="M 187.5,130.5 C 189.857,130.337 192.19,130.503 194.5,131C 195.86,132.938 195.527,134.604 193.5,136C 191.167,136.667 188.833,136.667 186.5,136C 183.898,133.688 184.232,131.855 187.5,130.5 Z"/></g>
<g><path style="opacity:1" fill="#c6c2be" d="M 23.5,139.5 C 105.827,141.497 188.493,142.164 271.5,141.5C 188.668,142.499 105.668,142.833 22.5,142.5C 22.2627,141.209 22.596,140.209 23.5,139.5 Z"/></g>
<g><path style="opacity:1" fill="#d7d3d1" d="M 14.5,145.5 C 31.8461,145.167 49.1795,145.5 66.5,146.5C 48.0044,147.827 29.671,147.827 11.5,146.5C 12.791,146.737 13.791,146.404 14.5,145.5 Z"/></g>
<g><path style="opacity:1" fill="#dad6d4" d="M 277.5,145.5 C 278.209,146.404 279.209,146.737 280.5,146.5C 262.329,147.827 243.996,147.827 225.5,146.5C 242.821,145.5 260.154,145.167 277.5,145.5 Z"/></g>
</svg>